<?xml version="1.0" encoding="UTF-8" standalone="no"?>
<svg xmlns:rdf="http://www.w3.org/1999/02/22-rdf-syntax-ns#" xmlns="http://www.w3.org/2000/svg" height="38mm" width="100mm" version="1.1" xmlns:cc="http://creativecommons.org/ns#" xmlns:dc="http://purl.org/dc/elements/1.1/" viewBox="0 0 354.33071 134.64565">
<g transform="translate(0 -917.72)">
<g>
<path d="m10.859 1022c-1.7498-0.125-2.7496-0.7499-2.9996-1.9998-0.24997-1.1248-0.7499-1.3748-1.4998-0.7499-1.7498 1.1249-2.6246 3.1246-2.6246 6.1242v0.4999c0 2.7497 0.87488 5.1243 2.6246 6.8741 0.7499 0.9999 1.7498 1.6248 2.9996 2.1247 1.1248 0.5 2.3747 0.6249 3.8745 0.6249h0.49993c3.2496 0 6.3741-0.7499 9.3737-2.2497 2.8746-1.3748 5.6242-3.6245 8.3739-6.749 4.9993-5.7493 9.4987-15.123 13.748-27.871 1.3748-4.4994 2.7496-9.6237 4.2494-15.373 1.7498 0.24997 3.4995 0.37495 5.3743 0.37495 2.1247 0.12498 4.1244 0.12498 5.9992 0.12498h1.2498c0.99987 6.2492 2.3747 12.123 3.9995 17.623 1.4998 5.9992 3.4995 10.998 5.9992 14.748 1.2498 2.1248 2.7496 3.8745 4.3744 5.1244 1.4998 1.2498 3.2496 1.9997 5.2493 2.2497 1.2498 0.2499 2.4997-0.25 3.6245-1.4998 1.1248-0.9999 2.1247-2.4997 3.1246-4.2495 1.3748-2.4996 2.4997-5.2493 3.4995-8.2489 0.87488-2.8746 1.4998-4.8743 1.7498-5.8742-0.24997-0.9998-0.7499-1.3748-1.3748-1.2498-0.62492 0.25-1.2498 0.4999-1.7498 0.9999-0.12498 0.7499-0.49993 2.2497-1.2498 4.3744-0.7499 2.1247-1.4998 4.2494-2.3747 6.2491-0.7499 1.7498-1.4998 3.1246-2.2497 4.2495-0.7499 1.2498-1.3748 1.8747-1.8747 1.7497-0.49993 0-1.4998-1.8747-2.7496-5.7492-1.3748-3.7495-2.8746-8.6238-4.4994-14.498-0.99987-2.9996-1.8747-6.3742-2.7496-9.8737-0.99987-3.3745-1.8747-6.8741-2.8746-10.624-2.1247-8.2489-4.1244-16.123-5.8742-23.622s-2.8746-12.748-3.3745-15.873c-0.37495-2.3747-0.87488-3.9995-1.4998-4.9993-0.62492-0.99987-1.3748-1.4998-2.1247-1.7498-0.24997 0-0.62492-0.12498-0.87488-0.12498-1.2498 0-2.7496 0.49993-4.3744 1.4998-1.9997 1.2498-3.9995 1.3748-5.9992 0.37495-0.99987 5.7492-2.3747 12.123-4.3744 19.122-1.9997 7.124-4.1244 14.248-6.3741 21.497-2.8746 8.7488-5.8742 17.123-8.8738 25.122-3.1246 7.999-5.7492 14.623-7.9989 19.622-1.2498 2.7496-2.3747 4.9993-3.3745 6.4991-0.99987 1.7498-1.6248 2.6247-1.9997 2.7497-0.62492 0.2499-1.2498-0.7499-1.8747-3.1246-0.7499-2.2497-0.7499-3.7495-0.12498-4.2494zm48.369-59.242c0.62492 5.8742 1.3748 11.748 2.3747 17.748-1.7498 0-3.6245-0.12498-5.4993-0.37495-1.9997 0-3.9995-0.12498-5.7492-0.24997 2.2497-9.4987 4.3744-20.747 6.6241-33.496 0.7499 4.4994 1.4998 9.9987 2.2497 16.373z"/>
<path d="m105.22 992.83c-1.2498-1.2498-2.4997-2.1247-3.7495-2.6246-1.2498-0.24996-2.3747-0.24996-3.4995 0-2.2497 0.7499-4.1244 2.3747-5.7492 5.1243-1.7498 2.7496-2.7496 5.7493-3.1246 8.7489-0.24997 0.9998-0.24997 1.8747-0.24997 2.7496 0 0.7499 0 1.3748 0.12498 1.9997 0.12498 1.6248 0.62492 2.9996 1.3748 4.2494 0.62492 1.2499 1.4998 2.1248 2.7496 2.7497 1.1248 0.7499 2.6246 1.1248 4.3744 1.1248 2.9996 0 5.1243-0.7499 6.1242-2.3747 0.99986-1.4998 1.6248-3.1245 2.1247-4.8743 0.12499 0.6249 0.37495 1.3748 0.7499 2.2497 0.24997 0.9999 0.7499 1.9997 1.3748 2.9996 0.99986 2.1247 2.4997 4.1244 4.4994 5.8742 1.9997 1.9997 4.4994 2.9996 7.624 3.1246h0.24997c1.3748 0 2.7496-0.4999 3.9995-1.7498 1.2498-1.2498 2.4997-2.8746 3.6245-4.8743 1.6248-2.8746 2.9996-5.9992 4.1244-9.3738 0.99987-3.3745 1.7498-5.8742 2.2497-7.499-0.49993-0.2499-0.99986-0.3749-1.4998-0.3749-0.49993 0-0.99986 0.125-1.4998 0.25-0.24996 0.8748-0.7499 2.1247-1.2498 3.8744-0.62491 1.7498-1.2498 3.4996-1.9997 5.2493-1.2498 2.8746-2.4997 5.4993-3.8745 7.749-1.3748 2.4997-2.6246 3.6245-3.6245 3.4995-0.99987 0-1.6248-1.3748-1.9997-3.9994-0.49993-2.4997-0.87488-5.3743-0.99986-8.7489-0.24997-3.9994-0.37495-7.9989-0.37495-11.998 0-3.8745-0.24997-6.2492-0.49993-6.9991-0.24997-0.87488-1.2498-1.3748-2.7496-1.3748-0.62491 0-1.2498 0.12499-1.7498 0.24997-2.7496 0.37495-4.3744 2.4997-5.1243 6.2492-0.12499 0.49994-0.37495 1.6248-0.87489 3.4995-0.49993 1.9997-1.1248 3.9995-1.7498 6.2492-0.87488 2.7496-1.7498 5.3743-2.7496 7.624-0.99987 2.4996-1.9997 3.4995-2.7496 3.2495-0.7499 0-1.3748-1.2498-1.9997-3.7495-0.7499-2.3747-1.1248-4.9993-1.1248-7.7489-0.12498-1.7498 0-3.3746 0.37495-5.1243 0.24997-1.4998 0.7499-2.7496 1.6248-3.6245 0.62492-0.7499 1.4998-1.1248 2.6246-1.1248 0.99987 0.12499 2.3747 0.62492 4.1244 1.6248 0.49993 0 0.7499-0.24997 0.87488-0.87489 0.12499-0.49993 0.12499-0.87488-0.12498-1.2498z"/>
<path d="m142.97 985.09c0.12498 2.7496 0.24997 5.4993 0.49993 8.1239-0.99986-0.7499-1.8748-1.1248-2.8746-1.3748-1.3748-0.24996-2.6246-0.24996-3.7495 0.12499-2.2497 0.99986-4.1244 2.8746-5.6242 5.7492-1.4998 2.9996-2.2497 6.1242-2.3747 9.3737-0.12498 0.375-0.12498 0.7499-0.12498 0.9999 0 1.3748 0.12498 2.7496 0.49993 3.9995 0.24997 1.6248 0.87489 2.9996 1.7498 4.1244 0.7499 1.2499 1.8748 2.1247 3.2496 2.6247 1.2498 0.6249 2.7496 0.8749 4.7494 0.6249 1.9997-0.125 3.6245-0.7499 4.8743-1.8748 1.1248-0.9998 1.7498-2.3746 1.9997-4.1244 0.24997 0.9999 0.99987 2.4997 2.1247 4.4994 0.99986 2.2497 2.6246 4.1244 4.6244 5.7492 0.99986 0.8749 2.2497 1.4998 3.6245 1.9998 1.2498 0.4999 2.6246 0.7499 4.1244 0.7499h0.49993c1.4998 0 2.8746-0.625 4.2494-1.9998 1.2498-1.2498 2.3747-2.9996 3.6245-4.9993 1.6248-2.8746 2.9996-5.9992 4.1244-9.3738 1.1248-3.3745 1.8748-5.8742 2.3747-7.4989-0.49993-0.25-0.99986-0.375-1.4998-0.625-0.49994-0.1249-0.99987-0.1249-1.4998 0.125-0.24997 0.9999-0.7499 2.2497-1.2498 3.9995-0.62491 1.7497-1.3748 3.6245-2.1247 5.4992-1.2498 2.9996-2.4997 5.7493-3.7495 8.2489-1.4998 2.4997-2.7496 3.8745-3.7495 3.8745-0.62491 0-1.2498-1.4998-1.7498-4.6244-0.49993-2.9996-0.99987-6.874-1.4998-11.498-0.37495-2.4997-0.62492-5.1243-0.87488-7.874-0.24997-2.7496-0.62492-5.4993-0.87488-8.2489-0.49994-5.1243-1.1248-9.9986-1.7498-14.498-0.7499-4.4994-1.3748-7.749-2.1247-9.8737-0.7499-1.9997-2.2497-3.7495-4.3744-5.2493-0.99986-0.62492-1.8748-0.99987-2.6246-0.99987-1.1248 0-2.1247 0.62492-2.8746 1.6248-0.62492 0.7499-0.87488 3.4995-0.62492 7.9989 0.24997 4.6244 0.49994 9.4987 0.99987 14.623zm-2.8746 10.499c0.99987 0 2.2497 0.24997 3.7495 0.87488 0.12498 2.4997 0.24997 4.4994 0.49993 5.9992 0 0.9998-0.12498 2.1247-0.12498 3.3745-0.12498 1.2498-0.24997 2.4997-0.37495 3.6245-0.37495 2.2497-0.99986 4.2495-1.7498 5.7493-0.7499 1.6247-1.7498 2.2497-2.8746 1.7497-0.99986-0.2499-1.8748-1.6248-2.6246-3.9994-0.7499-2.2497-1.2498-4.7494-1.4998-7.499-0.12499-1.7498 0-3.3746 0.37494-4.9994 0.24997-1.4998 0.7499-2.7496 1.7498-3.7495 0.7499-0.62492 1.6248-0.99987 2.8746-1.1248z"/>
<path d="m171.21 1000.2c-1.4998 3.7495-2.1247 6.999-2.1247 9.8736 0 1.8748 0.24997 3.6246 0.7499 5.1244 1.2498 4.1244 5.9992 7.124 13.998 8.9988 0.24996 0.1249 0.62491 0.1249 0.99986 0.1249 0.99987 0 2.1247-0.3749 3.3746-1.1248 1.4998-1.1249 2.9996-2.6247 4.4994-4.3744 2.1247-2.7497 3.9995-5.7493 5.7492-8.9988 1.7498-3.2496 2.8746-5.7492 3.6245-7.249-0.49993-0.25-0.99987-0.5-1.4998-0.5h-1.6248c-0.37495 0.9999-0.99987 2.2497-1.7498 3.7495-0.87488 1.6248-1.8748 3.2496-2.8746 4.9993-1.6248 2.6247-3.2496 4.9994-4.9993 7.1241-1.7498 2.2497-3.2496 3.3745-4.2494 3.3745-1.1248 0-1.7498-1.3748-1.7498-4.1244-0.12498-2.7496-0.12498-5.6243 0.12499-8.8738 0.12498-2.6247 0.37495-5.1243 0.62491-7.374 0.24997-2.1247 0.24997-3.4996 0.24997-4.2495-0.12498-0.99987-0.99987-1.7498-2.7496-2.2497-0.7499-0.12498-1.3748-0.24996-1.9997-0.24996-1.1248 0-2.2497 0.24996-3.3746 0.7499-0.99987 0.37494-1.9997 0.99986-2.8746 1.8747-0.99986 0.87489-1.6248 1.9997-2.1247 3.3746zm5.2493-15.373c0.12498 1.3748 1.2498 2.1247 3.2496 2.1247 1.9997 0.24996 3.9995 0.49993 6.1242 0.87488 0 0.12498 0.12498 0.12498 0.24996 0.12498 0.49994 0 0.87489-0.49993 0.87489-1.4998 0-0.24997-0.12499-0.7499-0.12499-1.3748-0.49993-1.9997-1.3748-3.2496-2.6246-3.7495-0.7499-0.12498-1.3748-0.24996-2.1247-0.24996-0.99986 0-1.9997 0.24996-2.9996 0.49993-1.7498 0.62492-2.6246 1.4998-2.6246 2.7496-0.12499 0.24997-0.12499 0.37495 0 0.49993z"/>
<path d="m210.96 1005.1c-0.12498-0.7499-0.24997-3.3745-0.37495-7.7489-0.24997-4.3744-0.37495-8.7488-0.62492-13.248-0.24996-2.9996-0.49993-5.6242-0.74989-8.1239-0.24997-2.3747-0.62492-3.9995-0.87489-4.8743-1.6248-2.2497-3.6245-3.9995-5.9992-5.3743-1.2498-0.49994-2.1247-0.87488-2.8746-0.87488-0.87488 0-1.4998 0.37494-1.7498 1.1248-0.99987 4.6244-1.3748 9.7487-1.3748 15.248 0 2.2497 0 4.6244 0.24997 6.8741 0.49993 8.4989 1.1248 15.998 2.1247 22.497 0.49994 3.7495 0.87489 6.8741 1.3748 9.4987 0.49993 2.6247 0.87488 4.4994 1.2498 5.7492 0.24997 1.4998 1.8748 2.8746 4.8744 3.8745 1.2498 0.4999 2.2497 0.7499 3.1246 0.7499 1.1248 0 1.9997-0.3749 2.4997-1.1248-0.24996-2.4997-0.12498-5.2493 0.12499-8.4989 0.12498-3.1246 0.37495-6.2492 0.87488-9.4987v-0.5c1.7498 0.375 3.1246 1.4998 4.2494 3.2496 1.2498 2.2497 2.7496 4.3744 4.4994 6.2492 0.87488 1.1248 1.8747 1.9997 2.9996 2.7496 0.99987 0.7499 2.2497 1.1249 3.7495 1.1249 1.2498 0 2.3747-0.625 3.4995-1.8748 0.99987-1.2498 2.1247-2.7496 3.1246-4.6244 1.2498-2.7496 2.4997-5.7492 3.4995-8.8738 0.87489-3.1246 1.4998-5.2493 1.8748-6.3741-0.49993-0.375-0.99986-0.5-1.4998-0.5-0.49993 0.125-0.87488 0.25-1.3748 0.25-0.24997 0.7499-0.7499 1.8748-1.2498 3.3746-0.49993 1.6247-1.1248 3.2495-1.7498 4.9993-0.99987 2.6246-2.1247 5.1243-3.1246 7.374-1.1248 2.2497-1.9997 3.3745-2.6246 3.1246-0.49993-0.125-1.2498-1.1249-2.1247-2.8746-0.87489-1.7498-2.1247-3.3746-3.6245-5.1244-0.87488-0.7499-1.8748-1.6247-2.8746-2.3746-1.1248-0.5-2.2497-0.9999-3.4995-1.3749 1.4998 0 2.9996-0.8748 4.7494-2.6246 1.7498-1.4998 2.9996-3.3745 3.9995-5.4993 0.49994-0.9998 0.7499-2.1247 0.99987-3.2495 0.12498-0.99986 0-1.9997-0.24997-2.9996-0.37495-0.87489-0.99986-1.6248-1.7498-2.3747-0.7499-0.62491-1.8748-1.1248-3.3746-1.3748-1.4998-0.24997-2.7496-0.24997-3.7495 0.24996-1.1248 0.49994-1.9997 1.1248-2.7496 1.8748-1.3748 1.7498-2.2497 3.7495-2.7496 6.1242-0.49993 2.4996-0.7499 4.3744-0.7499 5.6242zm4.4994 0.9999c-0.7499 0.9998-1.4998 1.7497-2.2497 2.2497 0.49993-3.4995 1.2498-6.6241 1.9997-9.4987 0.87488-3.4995 1.7498-5.2493 2.6246-5.1243 0.7499 0.12499 1.1248 1.1248 1.1248 2.8746-0.12499 1.7498-0.62492 3.6245-1.3748 5.6242-0.49993 1.4998-1.2498 2.7496-2.1247 3.8745z"/>
<path d="m252.2 992.83c-1.2498-1.2498-2.4997-2.1247-3.7495-2.6246-1.2498-0.24996-2.3747-0.24996-3.4995 0-2.2497 0.7499-4.1244 2.3747-5.7492 5.1243-1.7498 2.7496-2.7496 5.7493-3.1246 8.7489-0.24997 0.9998-0.24997 1.8747-0.24997 2.7496 0 0.7499 0 1.3748 0.12498 1.9997 0.12499 1.6248 0.62492 2.9996 1.3748 4.2494 0.62492 1.2499 1.4998 2.1248 2.7496 2.7497 1.1248 0.7499 2.6246 1.1248 4.3744 1.1248 2.9996 0 5.1243-0.7499 6.1242-2.3747 0.99987-1.4998 1.6248-3.1245 2.1247-4.8743 0.12498 0.6249 0.37495 1.3748 0.7499 2.2497 0.24996 0.9999 0.7499 1.9997 1.3748 2.9996 0.99987 2.1247 2.4997 4.1244 4.4994 5.8742 1.9997 1.9997 4.4994 2.9996 7.624 3.1246h0.24996c1.3748 0 2.7496-0.4999 3.9995-1.7498 1.2498-1.2498 2.4997-2.8746 3.6245-4.8743 1.6248-2.8746 2.9996-5.9992 4.1244-9.3738 0.99986-3.3745 1.7498-5.8742 2.2497-7.499-0.49993-0.2499-0.99986-0.3749-1.4998-0.3749s-0.99987 0.125-1.4998 0.25c-0.24997 0.8748-0.7499 2.1247-1.2498 3.8744-0.62491 1.7498-1.2498 3.4996-1.9997 5.2493-1.2498 2.8746-2.4997 5.4993-3.8745 7.749-1.3748 2.4997-2.6246 3.6245-3.6245 3.4995-0.99987 0-1.6248-1.3748-1.9997-3.9994-0.49994-2.4997-0.87489-5.3743-0.99987-8.7489-0.24997-3.9994-0.37495-7.9989-0.37495-11.998 0-3.8745-0.24996-6.2492-0.49993-6.9991-0.24997-0.87488-1.2498-1.3748-2.7496-1.3748-0.62492 0-1.2498 0.12499-1.7498 0.24997-2.7496 0.37495-4.3744 2.4997-5.1243 6.2492-0.12498 0.49994-0.37495 1.6248-0.87488 3.4995-0.49994 1.9997-1.1248 3.9995-1.7498 6.2492-0.87488 2.7496-1.7498 5.3743-2.7496 7.624-0.99987 2.4996-1.9997 3.4995-2.7496 3.2495-0.7499 0-1.3748-1.2498-1.9997-3.7495-0.7499-2.3747-1.1248-4.9993-1.1248-7.7489-0.12499-1.7498 0-3.3746 0.37495-5.1243 0.24996-1.4998 0.7499-2.7496 1.6248-3.6245 0.62492-0.7499 1.4998-1.1248 2.6246-1.1248 0.99986 0.12499 2.3747 0.62492 4.1244 1.6248 0.49994 0 0.7499-0.24997 0.87489-0.87489 0.12498-0.49993 0.12498-0.87488-0.12499-1.2498z"/>
<path d="m283.7 999.96c-0.7499 0.125-1.4998 0.125-2.2497-0.12498 0.49993-0.99986 1.1248-2.2497 1.7498-3.7495 1.2498-3.4995 1.4998-6.4991 0.7499-8.9988-0.37495-0.7499-0.87488-1.4998-1.3748-2.1247-0.7499-0.49994-1.4998-0.87489-2.4997-1.1248-0.7499-0.12499-1.4998-0.24997-2.1247-0.24997-2.4997 0-4.3744 0.87488-5.7492 2.4997-1.2498 1.4998-1.8748 3.8745-1.8748 6.9991 0 1.3748 0.12498 2.8746 0.37495 4.3744 0.12498 1.4998 0.62492 2.7497 1.3748 3.4996 0.62491 0.8749 1.4998 1.4998 2.4997 1.8747 1.7498 0.7499 3.7495 0.9999 5.8742 0.7499 1.9997-0.125 3.3746-0.125 4.1244-0.125-1.8748 2.4997-3.4995 5.9992-4.8744 10.249-1.4998 4.4994-1.3748 8.1239 0.37495 10.874 0.7499 1.2498 1.8748 2.2497 3.3746 2.8746 1.3748 0.7499 3.2496 1.1249 5.7492 1.1249h0.12498c1.8748 0 3.6245-0.5 5.3743-1.4998 1.6248-0.8749 3.1246-2.1247 4.6244-3.6245 2.6246-2.7497 4.8744-6.2492 6.8741-10.249 1.7498-3.9994 3.2496-7.499 4.2494-10.624-0.49993-0.5-0.99987-0.7499-1.4998-0.7499s-1.1248 0.1249-1.7498 0.1249c-0.49993 1.4998-1.1248 3.2496-1.9997 5.2493-0.99986 2.1247-1.9997 4.2495-3.1246 6.2492-1.8748 3.1246-3.7495 5.8742-5.6242 8.2489-1.8748 2.4997-3.3746 3.6245-4.3744 3.4995-0.99986-0.125-1.2498-1.3748-0.99986-3.7495 0.24996-2.2497 0.49993-4.7493 0.99986-7.7489l0.49994-4.4994c0-1.4998 0-2.9996-0.12499-4.2495-0.12498-0.8748-0.37495-1.6247-0.62491-2.3746-0.24997-0.7499-0.7499-1.2499-1.2498-1.7498-2.9996-0.7499-5.2493-1.1249-6.8741-0.8749zm-3.3746-4.8743c-0.49993 1.3748-0.87488 2.4997-1.3748 3.4995-0.24996-0.12498-0.49993-0.37495-0.7499-0.62492-0.87488-0.62491-0.87488-2.7496 0-6.3741 0.7499-3.4995 1.4998-5.1243 2.3747-4.9993 0.74989 0.24996 0.99986 1.2498 0.87488 2.9996-0.24997 1.8747-0.62492 3.7495-1.1248 5.4993z"/>
<path d="m322.19 992.83c-1.2498-1.2498-2.4997-2.1247-3.7495-2.6246-1.2498-0.24996-2.3747-0.24996-3.4995 0-2.2497 0.7499-4.1244 2.3747-5.7492 5.1243-1.7498 2.7496-2.7496 5.7493-3.1246 8.7489-0.24996 0.9998-0.24996 1.8747-0.24996 2.7496 0 0.7499 0 1.3748 0.12498 1.9997 0.12498 1.6248 0.62492 2.9996 1.3748 4.2494 0.62492 1.2499 1.4998 2.1248 2.7496 2.7497 1.1248 0.7499 2.6246 1.1248 4.3744 1.1248 2.9996 0 5.1243-0.7499 6.1242-2.3747 0.99986-1.4998 1.6248-3.1245 2.1247-4.8743 0.12499 0.6249 0.37495 1.3748 0.7499 2.2497 0.24997 0.9999 0.7499 1.9997 1.3748 2.9996 0.99986 2.1247 2.4997 4.1244 4.4994 5.8742 1.9997 1.9997 4.4994 2.9996 7.624 3.1246h0.24997c1.3748 0 2.7496-0.4999 3.9995-1.7498 1.2498-1.2498 2.4997-2.8746 3.6245-4.8743 1.6248-2.8746 2.9996-5.9992 4.1244-9.3738 0.99987-3.3745 1.7498-5.8742 2.2497-7.499-0.49993-0.2499-0.99987-0.3749-1.4998-0.3749s-0.99986 0.125-1.4998 0.25c-0.24996 0.8748-0.7499 2.1247-1.2498 3.8744-0.62492 1.7498-1.2498 3.4996-1.9997 5.2493-1.2498 2.8746-2.4997 5.4993-3.8745 7.749-1.3748 2.4997-2.6246 3.6245-3.6245 3.4995-0.99986 0-1.6248-1.3748-1.9997-3.9994-0.49993-2.4997-0.87488-5.3743-0.99986-8.7489-0.24997-3.9994-0.37495-7.9989-0.37495-11.998 0-3.8745-0.24997-6.2492-0.49994-6.9991-0.24996-0.87488-1.2498-1.3748-2.7496-1.3748-0.62491 0-1.2498 0.12499-1.7498 0.24997-2.7496 0.37495-4.3744 2.4997-5.1243 6.2492-0.12499 0.49994-0.37495 1.6248-0.87489 3.4995-0.49993 1.9997-1.1248 3.9995-1.7498 6.2492-0.87489 2.7496-1.7498 5.3743-2.7496 7.624-0.99987 2.4996-1.9997 3.4995-2.7496 3.2495-0.74989 0-1.3748-1.2498-1.9997-3.7495-0.7499-2.3747-1.1248-4.9993-1.1248-7.7489-0.12498-1.7498 0-3.3746 0.37495-5.1243 0.24997-1.4998 0.7499-2.7496 1.6248-3.6245 0.62491-0.7499 1.4998-1.1248 2.6246-1.1248 0.99987 0.12499 2.3747 0.62492 4.1244 1.6248 0.49993 0 0.7499-0.24997 0.87488-0.87489 0.12499-0.49993 0.12499-0.87488-0.12498-1.2498z"/>
</g>
</g>
</svg>
